<svg width="197" height="197" viewBox="0 0 197 197" fill="none" xmlns="http://www.w3.org/2000/svg">
<path opacity="0.75" fill-rule="evenodd" clip-rule="evenodd" d="M98.5 191.949C150.11 191.949 191.949 150.11 191.949 98.5C191.949 46.8897 150.11 5.05128 98.5 5.05128C46.8897 5.05128 5.05128 46.8897 5.05128 98.5C5.05128 150.11 46.8897 191.949 98.5 191.949ZM98.5 197C152.9 197 197 152.9 197 98.5C197 44.1 152.9 0 98.5 0C44.1 0 0 44.1 0 98.5C0 152.9 44.1 197 98.5 197ZM20.2051 63.6461C20.2051 62.5302 21.1097 61.6256 22.2256 61.6256H76.2744C77.3903 61.6256 78.2949 62.5302 78.2949 63.6461C78.2949 63.9219 78.2396 64.1848 78.1395 64.4243C78.7886 64.413 79.4314 64.714 79.8318 65.2858L119.328 121.692L162.221 59.9686C162.858 59.0522 164.117 58.8256 165.033 59.4624C165.571 59.8359 165.871 60.4234 165.899 61.0304C166.381 61.3996 166.692 61.9814 166.692 62.6359V149.518C166.692 150.634 165.788 151.538 164.672 151.538C163.556 151.538 162.651 150.634 162.651 149.518V66.4305L122.493 124.22C122.262 124.552 121.949 124.794 121.6 124.937L137.831 148.118C138.471 149.032 138.249 150.292 137.335 150.932C136.421 151.572 135.161 151.35 134.521 150.435L76.5216 67.6036C76.1096 67.0153 76.0548 66.2836 76.3119 65.6663C76.2994 65.6665 76.2869 65.6666 76.2744 65.6666H22.2256C21.1097 65.6666 20.2051 64.762 20.2051 63.6461ZM22.2256 71.7282C21.1097 71.7282 20.2051 72.6328 20.2051 73.7487C20.2051 74.8646 21.1097 75.7692 22.2256 75.7692H71.2231C71.2505 75.7692 71.2779 75.7687 71.3051 75.7676C71.0671 76.3762 71.1283 77.0888 71.5312 77.6642L125.469 154.695C126.109 155.609 127.369 155.831 128.283 155.191C129.197 154.551 129.419 153.291 128.779 152.377L74.8414 75.3464C74.432 74.7616 73.7688 74.46 73.1048 74.4862C73.1944 74.2577 73.2436 74.009 73.2436 73.7487C73.2436 72.6328 72.339 71.7282 71.2231 71.7282H22.2256ZM48.4923 156.59C47.3764 156.59 46.4718 155.685 46.4718 154.569V77.7898C46.4718 76.6739 47.3764 75.7693 48.4923 75.7693C49.6082 75.7693 50.5128 76.6739 50.5128 77.7898V154.569C50.5128 155.685 49.6082 156.59 48.4923 156.59ZM73.7487 156.59C72.6328 156.59 71.7282 155.685 71.7282 154.569V103.046C71.7282 101.93 72.6328 101.026 73.7487 101.026C74.8646 101.026 75.7692 101.93 75.7692 103.046V154.569C75.7692 155.685 74.8646 156.59 73.7487 156.59Z" fill="url(#paint0_linear_140_4789)"/>
<defs>
<linearGradient id="paint0_linear_140_4789" x1="17.73" y1="47.28" x2="234.43" y2="131.99" gradientUnits="userSpaceOnUse">
<stop stop-color="white"/>
<stop offset="1" stop-color="white" stop-opacity="0"/>
</linearGradient>
</defs>
</svg>
