<svg width="50" height="67" viewBox="0 0 50 67" fill="none" xmlns="http://www.w3.org/2000/svg">
<path fill-rule="evenodd" clip-rule="evenodd" d="M48.7179 25C48.7179 38.0991 38.0991 48.7179 25 48.7179C11.9009 48.7179 1.28205 38.0991 1.28205 25C1.28205 11.9009 11.9009 1.28205 25 1.28205C38.0991 1.28205 48.7179 11.9009 48.7179 25ZM50 25C50 38.8071 38.8071 50 25 50C11.1929 50 0 38.8071 0 25C0 11.1929 11.1929 0 25 0C38.8071 0 50 11.1929 50 25ZM3.50993 53.9953H4.09997L6.12958 58.8686H6.17875L8.20836 53.9953H8.7984V59.5897H8.31763V55.0743H8.27392L6.38635 59.5897H5.92197L4.03441 55.0743H3.9907V59.5897H3.50993V53.9953ZM12.9601 53.9953V59.5897H12.4492V53.9953H12.9601ZM20.9679 53.9953V59.5897H20.4707L17.1654 54.905H17.1217V59.5897H16.6109V53.9953H17.1053L20.4215 58.6856H20.4652V53.9953H20.9679ZM25.1295 53.9953V59.5897H24.6187V53.9953H25.1295ZM28.7804 53.9953H29.3704L31.4 58.8686H31.4492L33.4788 53.9953H34.0688V59.5897H33.5881V55.0743H33.5444L31.6568 59.5897H31.1924L29.3048 55.0743H29.2611V59.5897H28.7804V53.9953ZM37.7279 59.5897H37.1925L39.2275 53.9953H39.7739L41.8089 59.5897H41.2735L40.6741 57.9043H38.3273L37.7279 59.5897ZM39.5198 54.6591L40.5108 57.4454H38.4906L39.4816 54.6591H39.5198ZM44.9312 59.5897V53.9953H45.442V59.1308H48.1081V59.5897H44.9312ZM17.9495 63.8014V63.4534H20.3787V63.8014H19.3602V66.6923H18.968V63.8014H17.9495ZM22.2365 66.6923V63.4534H24.1912V63.8014H22.6287V64.8957H24.09V65.2437H22.6287V66.3444H24.2165V66.6923H22.2365ZM28.7569 64.4656H28.3647C28.3415 64.3528 28.3009 64.2537 28.243 64.1683C28.186 64.0829 28.1164 64.0112 28.0342 63.9532C27.953 63.8941 27.8629 63.8499 27.7638 63.8203C27.6647 63.7908 27.5613 63.7761 27.4538 63.7761C27.2577 63.7761 27.08 63.8256 26.9208 63.9247C26.7627 64.0238 26.6367 64.1698 26.5429 64.3628C26.4501 64.5557 26.4037 64.7924 26.4037 65.0729C26.4037 65.3533 26.4501 65.59 26.5429 65.783C26.6367 65.9759 26.7627 66.1219 26.9208 66.221C27.08 66.3201 27.2577 66.3697 27.4538 66.3697C27.5613 66.3697 27.6647 66.3549 27.7638 66.3254C27.8629 66.2959 27.953 66.2521 28.0342 66.1941C28.1164 66.1351 28.186 66.0629 28.243 65.9775C28.3009 65.891 28.3415 65.7919 28.3647 65.6802H28.7569C28.7274 65.8457 28.6736 65.9938 28.5956 66.1246C28.5176 66.2553 28.4206 66.3665 28.3046 66.4582C28.1887 66.5489 28.0584 66.618 27.914 66.6654C27.7706 66.7129 27.6172 66.7366 27.4538 66.7366C27.1776 66.7366 26.9319 66.6691 26.7168 66.5342C26.5017 66.3992 26.3325 66.2073 26.2092 65.9585C26.0858 65.7097 26.0241 65.4145 26.0241 65.0729C26.0241 64.7313 26.0858 64.4361 26.2092 64.1872C26.3325 63.9384 26.5017 63.7465 26.7168 63.6116C26.9319 63.4766 27.1776 63.4092 27.4538 63.4092C27.6172 63.4092 27.7706 63.4329 27.914 63.4803C28.0584 63.5278 28.1887 63.5974 28.3046 63.6891C28.4206 63.7798 28.5176 63.8905 28.5956 64.0212C28.6736 64.1509 28.7274 64.299 28.7569 64.4656ZM30.6432 63.4534H31.0354V64.8957H32.7624V63.4534H33.1546V66.6923H32.7624V65.2437H31.0354V66.6923H30.6432V63.4534ZM5.12821 16.1538C5.12821 15.8706 5.3578 15.641 5.64103 15.641H19.359C19.6422 15.641 19.8718 15.8706 19.8718 16.1538C19.8718 16.2238 19.8578 16.2906 19.8324 16.3513C19.9971 16.3485 20.1603 16.4249 20.2619 16.57L30.2863 30.8864L41.1728 15.2205C41.3344 14.9879 41.654 14.9303 41.8866 15.092C42.023 15.1868 42.0992 15.3359 42.1062 15.4899C42.2287 15.5837 42.3077 15.7313 42.3077 15.8974V37.9487C42.3077 38.2319 42.0781 38.4615 41.7949 38.4615C41.5117 38.4615 41.2821 38.2319 41.2821 37.9487V16.8605L31.0895 31.5279C31.0309 31.6123 30.9514 31.6736 30.8629 31.7098L34.9826 37.5933C35.145 37.8253 35.0886 38.1451 34.8566 38.3075C34.6246 38.47 34.3048 38.4136 34.1424 38.1816L19.4217 17.1583C19.3172 17.0089 19.3033 16.8233 19.3685 16.6666L19.359 16.6667H5.64103C5.3578 16.6667 5.12821 16.4371 5.12821 16.1538ZM5.64103 18.2051C5.3578 18.2051 5.12821 18.4347 5.12821 18.7179C5.12821 19.0012 5.3578 19.2308 5.64103 19.2308H12.3077C12.0245 19.2308 11.7949 19.4604 11.7949 19.7436V39.2308C11.7949 39.514 12.0245 39.7436 12.3077 39.7436C12.5909 39.7436 12.8205 39.514 12.8205 39.2308V19.7436C12.8205 19.4604 12.5909 19.2308 12.3077 19.2308H18.0769C18.0839 19.2308 18.0908 19.2306 18.0977 19.2304C18.0373 19.3848 18.0529 19.5657 18.1551 19.7117L31.8449 39.2627C32.0073 39.4947 32.3271 39.5511 32.5591 39.3886C32.7911 39.2262 32.8475 38.9064 32.685 38.6744L18.9953 19.1234C18.8914 18.975 18.723 18.8985 18.5545 18.9051C18.5773 18.8471 18.5897 18.784 18.5897 18.7179C18.5897 18.4347 18.3601 18.2051 18.0769 18.2051H5.64103ZM18.7179 39.7436C18.4347 39.7436 18.2051 39.514 18.2051 39.2308V26.1538C18.2051 25.8706 18.4347 25.641 18.7179 25.641C19.0012 25.641 19.2308 25.8706 19.2308 26.1538V39.2308C19.2308 39.514 19.0012 39.7436 18.7179 39.7436Z" fill="white"/>
</svg>
